<svg xmlns="http://www.w3.org/2000/svg" enable-background="new 0 0 64 64" viewBox="0 0 64 64" id="checklist"><path fill="#33495c" d="M45.17 64H5.44c-1.55 0-2.81-1.26-2.81-2.81V12.47c0-1.54 1.26-2.8 2.81-2.8h5.39c.54 0 .97.43.97.97 0 .54-.43.97-.97.97H5.44c-.49 0-.87.38-.87.86v48.72c0 .48.39.87.87.87h39.73c.48 0 .86-.39.86-.87V44.2c0-.54.43-.97.97-.97.54 0 .97.43.97.97v16.99C47.97 62.74 46.71 64 45.17 64zM47 31.39c-.54 0-.97-.43-.97-.97V12.47c0-.48-.39-.86-.86-.86h-5.39c-.54 0-.97-.43-.97-.97 0-.54.43-.97.97-.97h5.39c1.54 0 2.8 1.26 2.8 2.8v17.95C47.97 30.96 47.53 31.39 47 31.39z"></path><path fill="#33495c" d="M39.85,14.88h-29.1c-0.54,0-0.97-0.43-0.97-0.97v-2.38c0-3.52,2.86-6.38,6.38-6.38h3.1
					C19.72,2.23,22.26,0,25.3,0c3.04,0,5.58,2.23,6.04,5.15h3.1c3.52,0,6.38,2.86,6.38,6.38v2.38
					C40.82,14.45,40.39,14.88,39.85,14.88z M11.72,12.94h27.16v-1.41c0-2.45-1.99-4.44-4.44-4.44h-3.99c-0.54,0-0.97-0.43-0.97-0.97
					c0-2.3-1.87-4.18-4.18-4.18c-2.3,0-4.18,1.87-4.18,4.18c0,0.54-0.43,0.97-0.97,0.97h-3.99c-2.45,0-4.44,1.99-4.44,4.44V12.94z"></path><path fill="#33495c" d="M25.3 9.48c-1.84 0-3.33-1.49-3.33-3.33s1.49-3.33 3.33-3.33c1.84 0 3.33 1.49 3.33 3.33S27.14 9.48 25.3 9.48zM25.3 4.76c-.77 0-1.39.62-1.39 1.39s.62 1.39 1.39 1.39c.77 0 1.39-.62 1.39-1.39S26.07 4.76 25.3 4.76zM18.67 30.09H8.79c-1.16 0-2.11-.95-2.11-2.11V18.1c0-1.16.95-2.11 2.11-2.11h9.88c1.16 0 2.11.95 2.11 2.11v9.88C20.78 29.15 19.83 30.09 18.67 30.09zM8.79 17.93c-.09 0-.17.08-.17.17v9.88c0 .09.08.17.17.17h9.88c.09 0 .17-.08.17-.17V18.1c0-.09-.08-.17-.17-.17H8.79z"></path><path fill="#1ca4c9" d="M12.45,26.4c-0.26,0-0.5-0.1-0.69-0.28l-2.23-2.23c-0.38-0.38-0.38-0.99,0-1.37
							c0.38-0.38,0.99-0.38,1.37,0l1.54,1.54l4.09-4.09c0.38-0.38,0.99-0.38,1.37,0c0.38,0.38,0.38,0.99,0,1.37l-4.78,4.78
							C12.96,26.3,12.71,26.4,12.45,26.4z"></path><path fill="#33495c" d="M18.67,45.49H8.79c-1.16,0-2.11-0.95-2.11-2.11V33.5c0-1.16,0.95-2.11,2.11-2.11h9.88
									c1.16,0,2.11,0.95,2.11,2.11v9.88C20.78,44.55,19.83,45.49,18.67,45.49z M8.79,33.33c-0.09,0-0.17,0.08-0.17,0.17v9.88
									c0,0.09,0.08,0.17,0.17,0.17h9.88c0.09,0,0.17-0.08,0.17-0.17V33.5c0-0.09-0.08-0.17-0.17-0.17H8.79z"></path><path fill="#1ca4c9" d="M12.45,41.8c-0.25,0-0.5-0.09-0.69-0.28l-2.23-2.23c-0.38-0.38-0.38-0.99,0-1.37
							c0.38-0.38,0.99-0.38,1.37,0l1.54,1.54l4.09-4.09c0.38-0.38,0.99-0.38,1.37,0c0.38,0.38,0.38,0.99,0,1.37l-4.78,4.78
							C12.95,41.71,12.7,41.8,12.45,41.8z"></path><path fill="#33495c" d="M18.67,60.89H8.79c-1.16,0-2.11-0.95-2.11-2.11V48.9c0-1.16,0.95-2.11,2.11-2.11h9.88
									c1.16,0,2.11,0.95,2.11,2.11v9.88C20.78,59.95,19.83,60.89,18.67,60.89z M8.79,48.73c-0.09,0-0.17,0.08-0.17,0.17v9.88
									c0,0.09,0.08,0.17,0.17,0.17h9.88c0.09,0,0.17-0.08,0.17-0.17V48.9c0-0.09-0.08-0.17-0.17-0.17H8.79z"></path><path fill="#1ca4c9" d="M12.45,57.2c-0.26,0-0.5-0.1-0.69-0.28l-2.23-2.23c-0.38-0.38-0.38-0.99,0-1.37
							c0.38-0.38,0.99-0.38,1.37,0l1.54,1.54l4.09-4.09c0.38-0.38,0.99-0.38,1.37,0c0.38,0.38,0.38,0.99,0,1.37l-4.78,4.78
							C12.96,57.1,12.71,57.2,12.45,57.2z"></path><path fill="#33495c" d="M40.19 21.25H24.45c-.54 0-.97-.43-.97-.97 0-.54.43-.97.97-.97h15.75c.54 0 .97.43.97.97C41.16 20.82 40.73 21.25 40.19 21.25zM33.86 26.78h-9.41c-.54 0-.97-.43-.97-.97s.43-.97.97-.97h9.41c.54 0 .97.43.97.97S34.39 26.78 33.86 26.78zM40.19 36.65H24.45c-.54 0-.97-.43-.97-.97 0-.54.43-.97.97-.97h15.75c.54 0 .97.43.97.97C41.16 36.22 40.73 36.65 40.19 36.65zM33.86 42.18h-9.41c-.54 0-.97-.43-.97-.97s.43-.97.97-.97h9.41c.54 0 .97.43.97.97S34.39 42.18 33.86 42.18zM33.86 52.05h-9.41c-.54 0-.97-.43-.97-.97 0-.54.43-.97.97-.97h9.41c.54 0 .97.43.97.97C34.83 51.62 34.39 52.05 33.86 52.05zM33.86 57.58h-9.41c-.54 0-.97-.43-.97-.97 0-.54.43-.97.97-.97h9.41c.54 0 .97.43.97.97C34.83 57.14 34.39 57.58 33.86 57.58z"></path><g><path fill="#1ca4c9" d="M37.4,57.58c-0.15,0-0.31-0.04-0.45-0.11c-0.28-0.14-0.47-0.41-0.51-0.72l-0.66-4.43
								c-0.05-0.33,0.07-0.65,0.32-0.87c1.17-1.03,2.18-2.43,3.08-4.29c0.23-0.48,0.81-0.68,1.3-0.45c0.48,0.23,0.68,0.81,0.45,1.3
								c-0.92,1.89-1.95,3.38-3.15,4.53l0.38,2.56l2.28-1.24c0.19-1.67,0.77-3.43,1.73-5.25c0.25-0.47,0.83-0.66,1.31-0.41
								c0.47,0.25,0.66,0.84,0.41,1.31c-0.94,1.78-1.46,3.47-1.56,5.02c-0.02,0.33-0.21,0.63-0.51,0.79l-3.98,2.15
								C37.7,57.54,37.55,57.58,37.4,57.58z"></path><path fill="#1ca4c9" d="M44.27,50.65c-0.15,0-0.3-0.03-0.43-0.1l-5.49-2.73c-0.24-0.12-0.42-0.33-0.5-0.58
									c-0.08-0.25-0.05-0.53,0.08-0.76l13.25-26.62c0.12-0.25,0.28-0.5,0.47-0.73c1.1-1.36,2.94-1.87,4.57-1.26
									c0.14,0.06,0.27,0.11,0.39,0.17c0.26,0.13,0.51,0.29,0.73,0.47c0.08,0.06,0.18,0.15,0.28,0.25c0.24,0.24,0.45,0.51,0.63,0.8
									c0.03,0.03,0.1,0.16,0.16,0.29c0.07,0.13,0.15,0.31,0.21,0.49c0.05,0.16,0.08,0.27,0.11,0.38c0.03,0.17,0.06,0.29,0.07,0.43
									c0,0.02,0.01,0.05,0.01,0.08c0.09,0.77-0.05,1.55-0.4,2.24L45.13,50.12c-0.11,0.23-0.32,0.41-0.56,0.49
									C44.47,50.64,44.37,50.65,44.27,50.65z M40.07,46.51l3.76,1.87L56.67,22.6c0.18-0.37,0.25-0.75,0.2-1.16
									c0-0.02,0-0.03,0-0.05c-0.02-0.11-0.03-0.19-0.05-0.27c-0.01-0.02-0.02-0.08-0.04-0.14c-0.03-0.07-0.07-0.17-0.12-0.27
									l-0.05-0.09c-0.14-0.22-0.24-0.36-0.37-0.48c-0.05-0.05-0.09-0.09-0.14-0.13c-0.13-0.11-0.24-0.18-0.37-0.24
									c-0.09-0.04-0.15-0.07-0.22-0.1c-0.83-0.31-1.78-0.05-2.36,0.67c-0.1,0.12-0.18,0.24-0.24,0.37L40.07,46.51z"></path><path fill="#1ca4c9" d="M55.24,38.24c-0.14,0-0.29-0.03-0.43-0.1c-0.48-0.24-0.68-0.82-0.44-1.3l4.73-9.57l-8.45-4.18
					c-0.48-0.24-0.68-0.82-0.44-1.3c0.24-0.48,0.82-0.68,1.3-0.44l9.32,4.61c0.48,0.24,0.68,0.82,0.44,1.3L56.11,37.7
					C55.95,38.04,55.6,38.24,55.24,38.24z"></path></g></svg>